- 
http://www.Speed.Cd 
       
http://www.Speed.Cd       the fast  and The Hottest Private Tracker on the net

(((--Registration will be open on june every weekend--)))

Please Seed back to make the speed Faster!!!

------------------nfo--------------------------
-
                                                     
                                                   
                                                         
                                                          
                                                           
                                                          
                                                          
                                                          
                                                           
                                                         
                                                          
                                                        
                                                      
                                     
                                                 
                                                   
                                             
                                              
                                                     
                                                      
                                                      
                                                      
                                                    
                                                     
                                                   
                                                     
                                                     
                                                      
                                                     
                                                      
                                                    
                 ARTiCHOKE                        
                                                
                      
                                                        
                                                      
                                                      
                                               
                                          
                                                   
                                            
                                                    
                                                       
                                                        
                                                      
                                                
                                                        
                                                 
                                              
                                                  
                                                
                                                  
                                        

      
                                
      SPRiNTER proudly presents...     
                                
      
 
 Lonely.Planet.Six.Degrees.2005.DVDRip.XViD-SPRiNTER  http://www.jbhifionline.com.au/dvd/dvd-genres/special-interest-documentary/lonely-planet-six-degrees-capetown/235556
 

 Date: 2011.07

 

      
                 
      Release notes     
                 
      

 

	Enjoy!


      
           
     Greetings    
           
      


NTX FiCO HNR CiNEFiLE AEN HUMANiSM TASTE 0MNiDVD


      
           
      Details     
           
      

Format                           : AVI
Format/Info                      : Audio Video Interleave
File size                        : 349 MiB
Duration                         : 46mn 47s
Overall bit rate                 : 1 042 Kbps
Writing application              : Nandub v1.0rc2
Writing library                  : Nandub build 1853/release

Video
ID                               : 0
Format                           : MPEG-4 Visual
Format profile                   : Advanced Simple@L5
Format settings, BVOP            : No
Format settings, QPel            : No
Format settings, GMC             : No warppoints
Format settings, Matrix          : Default (H.263)
Codec ID                         : XVID
Codec ID/Hint                    : XviD
Duration                         : 46mn 47s
Bit rate                         : 886 Kbps
Width                            : 576 pixels
Height                           : 320 pixels
Display aspect ratio             : 16:9
Frame rate                       : 25.000 fps
Color space                      : YUV
Chroma subsampling               : 4:2:0
Bit depth                        : 8 bits
Scan type                        : Progressive
Compression mode                 : Lossy
Bits/(Pixel*Frame)               : 0.192
Stream size                      : 296 MiB (85%)
Writing library                  : XviD 61

Audio
ID                               : 1
Format                           : MPEG Audio
Format version                   : Version 1
Format profile                   : Layer 3
Codec ID                         : 55
Codec ID/Hint                    : MP3
Duration                         : 46mn 47s
Bit rate mode                    : Variable
Bit rate                         : 143 Kbps
Channel(s)                       : 2 channels
Sampling rate                    : 48.0 KHz
Compression mode                 : Lossy
Stream size                      : 47.9 MiB (14%)
Alignment                        : Aligned on interleaves
Interleave, duration             : 24 ms (0.60 video frame)
Interleave, preload duration     : 143 ms
Writing library                  : LAME3.89 (alpha)